<?xml version="1.0" encoding="utf-8"?>
<!-- Svg Vector Icons : http://www.onlinewebfonts.com/icon -->
<!DOCTYPE svg PUBLIC "-//W3C//DTD SVG 1.1//EN" "http://www.w3.org/Graphics/SVG/1.1/DTD/svg11.dtd">
<svg version="1.1" xmlns="http://www.w3.org/2000/svg" xmlns:xlink="http://www.w3.org/1999/xlink" x="0px" y="0px" viewBox="0 0 1000 1000" enable-background="new 0 0 1000 1000" xml:space="preserve">
<metadata> Svg Vector Icons : http://www.onlinewebfonts.com/icon </metadata>
<g><g transform="translate(0.000000,511.000000) scale(0.100000,-0.100000)"><path d="M6908.4,4942.8c-58.5-49.5-101.3-128.3-173.3-308.3c-51.8-132.8-117.1-288.1-146.3-344.4l-51.8-103.5l-153-18c-202.6-20.3-200.3-20.3-344.3,13.5c-112.5,29.3-146.3,54-391.6,297.1c-274.6,272.3-508.6,450.1-564.9,429.9c-99-38.3-103.5-348.9-11.3-882.3c72-411.9,81-438.9,279.1-796.7l81-148.5l-54-211.6c-69.8-267.8-110.3-652.7-90-853c13.5-146.3,11.3-159.8-49.5-238.6c-33.8-47.3-162-182.3-281.3-299.3c-211.6-207.1-220.6-218.3-267.8-382.6c-76.5-276.8-99-306.1-371.4-492.9c-173.3-121.5-274.6-209.3-346.6-306.1c-132.8-173.3-301.6-342.1-569.4-571.7c-263.3-222.8-740.5-729.2-898-954.3c-303.8-429.9-549.2-909.3-751.7-1469.7l-99-274.6l31.5-164.3c24.8-135,27-211.6,6.7-400.6c-20.3-175.5-20.3-256.6,0-330.8c38.3-144.1,33.8-267.8-15.7-360.1c-36-65.3-38.3-94.5-20.3-146.3c40.5-119.3,114.8-155.3,315.1-155.3c220.6,0,713.5-33.8,1215.4-81c348.9-33.8,380.4-33.8,434.4,0c29.3,20.2,60.8,60.8,69.8,92.3c18,72,96.8,74.3,249.8,9c99-42.8,175.5-49.5,963.3-69.8l853-22.5l47.3,54c24.7,31.5,83.3,78.8,128.3,105.8l83.3,49.5l24.8-96.8c29.2-126,90-240.8,132.8-263.3c58.5-29.3,776.5-51.8,844-24.8c87.8,33.8,92.3,76.5,24.7,249.8c-67.5,171.1-119.3,222.8-227.3,222.8c-117,0-211.6,137.3-353.4,517.7c-38.3,99-47.3,180-49.5,405.1c-2.2,155.3-11.3,373.6-20.3,483.9L6375-2696l58.5-146.3c33.8-81,108-294.8,168.8-477.1c114.8-355.6,193.5-513.2,283.6-571.7c31.5-20.3,96.8-110.3,148.6-198.1c51.8-87.8,164.3-258.8,249.8-378.1l157.5-220.6l227.3,2.2c126,0,312.8,9,416.4,18c157.5,15.7,198.1,27,231.8,69.8c67.5,83.3,49.5,141.8-83.3,267.8l-121.5,114.8l-195.8-4.5l-193.6-6.7l-78.8,90c-101.3,117-319.6,483.9-333.1,567.2c-6.7,33.8-4.5,108,6.7,164.3c13.5,85.5,4.5,139.6-56.3,330.9c-38.3,128.3-83.3,290.3-96.8,360.1c-47.3,256.6-90,720.2-90,985.8c0,432.1,22.5,531.2,200.3,884.5c294.8,589.7,326.3,763,213.8,1188.4c-126.1,483.9-200.3,1345.9-146.3,1719.5c15.7,114.8,15.7,200.3-2.3,276.8c-27,132.8-15.8,148.5,166.6,236.3c85.5,42.8,182.3,123.8,315.1,265.6c189,200.3,193.6,209.3,209.3,337.6c6.7,74.3,24.7,177.8,36,234.1c29.3,132.8,0,207.1-96.8,254.3c-92.3,42.8-321.8,83.3-483.9,83.3c-96.8,0-119.3,6.7-119.3,38.3c0,20.2-22.5,60.8-49.5,92.3c-49.5,49.5-51.8,78.8-63,438.9c-11.3,339.9-18,400.6-63,499.7C7095.2,5030.6,7036.7,5057.6,6908.4,4942.8z M5564.7-2581.2c47.3-119.3,164.3-690.9,182.3-880c20.2-231.8,58.5-389.4,101.3-438.9c38.3-40.5,121.5-225.1,123.8-263.3c0-18-15.8-13.5-42.8,13.5c-22.5,22.5-94.5,58.5-159.8,81c-112.5,38.3-128.3,38.3-290.4,0c-141.8-31.5-243.1-36-576.2-27c-454.6,11.3-562.7,33.8-582.9,117c-29.3,112.5,15.7,240.8,173.3,504.2c87.8,144,207.1,364.6,265.6,488.4l108,229.6l175.6,72c144,60.8,414.1,146.3,486.1,155.3C5537.8-2527.2,5555.8-2552,5564.7-2581.2z"/></g></g>
</svg>